# xmcd CD database file
#
# Track frame offsets:
#	150
#	16190
#	34524
#	44064
#	58733
#	76856
#	94815
#	104879
#	125761
#	142499
#	161038
#	178018
#	200129
#	223331
#	233151
#	248782
#	265978
#	282042
#
# Disc length: 3908 seconds
#
# Revision: 4
# Processed by: cddbd v1.5.2PL0 Copyright (c) Steve Scherf et al.
# Submitted via: CDex 1.70beta2
#
DISCID=1b0f4212
DTITLE=Various Artist - The Best of Smooth Jazz... Ever 1.2
DYEAR=2004
DGENRE=Jazz
TTITLE0=Guru and DC Lee  - Ain't No Time To Play
TTITLE1=D'Angelo - Brown Sugar
TTITLE2=Bobbie Gentry - Son Of A Preacher Man
TTITLE3=Bob Dorough - 3 Is The Magic Number
TTITLE4=St. Germain - Rose Rouge
TTITLE5=Shuggie Otis - Strawberry Letter 23
TTITLE6=Nancy Wilson - Call Me
TTITLE7=Donald Byrd - Just My Imagination
TTITLE8=Luther Vandross - So Amazing
TTITLE9=Cassandra Wilson - Time After Time
TTITLE10=Minnie Riperton - Lovin' You
TTITLE11=Bob Belden - Sister Moon
TTITLE12=Carleen Anderson - Maybe I'm Amazed
TTITLE13=Peggy Lee - I'm A Woman
TTITLE14=Nat King Cole - Unforgettable
TTITLE15=Lou Rawls - Girl From Ipanema
TTITLE16=Cannonball Adderly - Sambop
TTITLE17=Elsa Soares - Mas Que Nada (Say No More)
EXTD=YEAR: 2004
EXTT0=
EXTT1=
EXTT2=
EXTT3=
EXTT4=
EXTT5=
EXTT6=
EXTT7=
EXTT8=
EXTT9=
EXTT10=
EXTT11=
EXTT12=
EXTT13=
EXTT14=
EXTT15=
EXTT16=
EXTT17=
PLAYORDER=
